# xmcd CD database file
#
# Track frame offsets:
#	150
#	20773
#	38044
#	61959
#	83651
#	104884
#	132399
#	154204
#	177554
#	201449
#	238361
#	267146
#	285085
#
# Disc length: 4337 seconds
#
# Revision: 2
# Processed by: cddbd v1.5.2PL0 Copyright (c) Steve Scherf et al.
# Submitted via: CDex 1.51
#
DISCID=bf10ef0d
DTITLE=Abi Wallenstein and Bluesculture - in Concert
DYEAR=2009
DGENRE=Blues
TTITLE0=Don't Start Cryin'
TTITLE1=Drive Me Crazy
TTITLE2=Chain Of Fools
TTITLE3=Ramona
TTITLE4=Blues Culture
TTITLE5=Leaving To Stay
TTITLE6=Good Morning Blues
TTITLE7=Grinnin' In Your Face
TTITLE8=Alabama
TTITLE9=The Hip Shake
TTITLE10=True Love Of My Live
TTITLE11=Destination Mississippi
TTITLE12=Silver City
EXTD=YEAR: 2009
EXTT0=
EXTT1=
EXTT2=
EXTT3=
EXTT4=
EXTT5=
EXTT6=
EXTT7=
EXTT8=
EXTT9=
EXTT10=
EXTT11=
EXTT12=
PLAYORDER=
